<?xml version="1.0" encoding="UTF-8" standalone="no"?><!DOCTYPE svg PUBLIC "-//W3C//DTD SVG 1.1//EN" "http://www.w3.org/Graphics/SVG/1.1/DTD/svg11.dtd"><svg width="100%" height="100%" viewBox="0 0 105 105" version="1.1" xmlns="http://www.w3.org/2000/svg" xmlns:xlink="http://www.w3.org/1999/xlink" xml:space="preserve" xmlns:serif="http://www.serif.com/" style="fill-rule:evenodd;clip-rule:evenodd;stroke-linecap:round;stroke-linejoin:round;stroke-miterlimit:1.5;"><rect id="archive" x="0.16" y="3.018" width="100" height="100" style="fill:none;"/><path d="M83.493,27.601l0,11.25c0,2.07 -1.68,3.75 -3.75,3.75l-59.168,0c-2.07,0 -3.75,-1.68 -3.75,-3.75l0,-11.25c0,-2.07 1.68,-3.75 3.75,-3.75l59.168,0c2.07,0 3.75,1.68 3.75,3.75Z" style="fill:none;stroke:#000;stroke-width:6.25px;"/><path d="M77.243,53.018l0,24.502c0,1.237 -0.491,2.424 -1.366,3.299c-0.875,0.875 -2.061,1.366 -3.299,1.366c-10.242,-0 -34.595,-0 -44.837,-0c-1.237,-0 -2.424,-0.491 -3.299,-1.366c-0.875,-0.875 -1.366,-2.061 -1.366,-3.299c-0,-10.468 -0,-34.918 -0,-34.918" style="fill:none;stroke:#000;stroke-width:6.25px;"/><path d="M39.742,55.101l20.834,-0" style="fill:none;stroke:#000;stroke-width:6.25px;"/></svg>