<?xml version="1.0" encoding="UTF-8" standalone="no"?><!DOCTYPE svg PUBLIC "-//W3C//DTD SVG 1.1//EN" "http://www.w3.org/Graphics/SVG/1.1/DTD/svg11.dtd"><svg width="100%" height="100%" viewBox="0 0 100 105" version="1.1" xmlns="http://www.w3.org/2000/svg" xmlns:xlink="http://www.w3.org/1999/xlink" xml:space="preserve" xmlns:serif="http://www.serif.com/" style="fill-rule:evenodd;clip-rule:evenodd;stroke-linecap:round;stroke-linejoin:round;stroke-miterlimit:1.5;"><rect id="hotel" x="-0.001" y="1.042" width="100" height="100" style="fill:none;"/><rect x="33.333" y="17.708" width="33.332" height="66.667" style="fill:none;stroke:#000;stroke-width:6.25px;"/><rect x="47.916" y="80.208" width="4.167" height="4.167" style="fill:none;stroke:#000;stroke-width:6.25px;"/><rect x="18.747" y="30.208" width="14.586" height="54.167" style="fill:none;stroke:#000;stroke-width:6.25px;"/><rect x="66.663" y="30.208" width="14.586" height="54.167" style="fill:none;stroke:#000;stroke-width:6.25px;"/><path d="M56.249,28.125l-12.5,0" style="fill:none;stroke:#000;stroke-width:6.25px;"/><path d="M70.833,17.708l-41.668,0" style="fill:none;stroke:#000;stroke-width:6.25px;"/><path d="M85.416,84.375l-70.833,0" style="fill:none;stroke:#000;stroke-width:6.25px;"/><path d="M33.333,38.542l-6.25,0" style="fill:none;stroke:#000;stroke-width:6.25px;"/><path d="M72.916,38.542l-6.25,0" style="fill:none;stroke:#000;stroke-width:6.25px;"/><path d="M56.249,38.542l-12.5,0" style="fill:none;stroke:#000;stroke-width:6.25px;"/><path d="M33.333,48.958l-6.25,0" style="fill:none;stroke:#000;stroke-width:6.25px;"/><path d="M72.916,48.958l-6.25,0" style="fill:none;stroke:#000;stroke-width:6.25px;"/><path d="M56.249,48.958l-12.5,0" style="fill:none;stroke:#000;stroke-width:6.25px;"/><path d="M33.333,59.375l-6.25,0" style="fill:none;stroke:#000;stroke-width:6.25px;"/><path d="M72.916,59.375l-6.25,0" style="fill:none;stroke:#000;stroke-width:6.25px;"/><path d="M56.249,59.375l-12.5,0" style="fill:none;stroke:#000;stroke-width:6.25px;"/><path d="M33.333,69.792l-6.25,0" style="fill:none;stroke:#000;stroke-width:6.25px;"/><path d="M72.916,69.792l-6.25,0" style="fill:none;stroke:#000;stroke-width:6.25px;"/><path d="M56.249,69.792l-12.5,0" style="fill:none;stroke:#000;stroke-width:6.25px;"/><path d="M33.333,80.208l-6.25,0" style="fill:none;stroke:#000;stroke-width:6.25px;"/><path d="M72.916,80.208l-6.25,0" style="fill:none;stroke:#000;stroke-width:6.25px;"/><path d="M14.583,30.208l18.75,0" style="fill:none;stroke:#000;stroke-width:6.25px;"/><path d="M85.416,30.208l-18.75,0" style="fill:none;stroke:#000;stroke-width:6.25px;"/></svg>