<?xml version="1.0" encoding="UTF-8" standalone="no"?><!DOCTYPE svg PUBLIC "-//W3C//DTD SVG 1.1//EN" "http://www.w3.org/Graphics/SVG/1.1/DTD/svg11.dtd"><svg width="100%" height="100%" viewBox="0 0 100 105" version="1.1" xmlns="http://www.w3.org/2000/svg" xmlns:xlink="http://www.w3.org/1999/xlink" xml:space="preserve" xmlns:serif="http://www.serif.com/" style="fill-rule:evenodd;clip-rule:evenodd;stroke-linecap:round;stroke-linejoin:round;stroke-miterlimit:1.5;"><rect id="lock" x="-0.001" y="3.51" width="100" height="100" style="fill:none;"/><path d="M68.749,45.177c2.21,-0 4.33,0.878 5.893,2.441c1.563,1.563 2.441,3.682 2.441,5.893c0,7.262 0,17.738 0,25c0,2.21 -0.878,4.33 -2.441,5.893c-1.563,1.563 -3.682,2.441 -5.893,2.441c-10.185,-0 -27.315,-0 -37.5,-0c-2.21,0 -4.33,-0.878 -5.893,-2.441c-1.563,-1.563 -2.441,-3.682 -2.441,-5.893c-0,-7.262 -0,-17.738 -0,-25c-0,-2.21 0.878,-4.33 2.441,-5.893c1.563,-1.563 3.682,-2.441 5.893,-2.441c10.185,0 27.315,0 37.5,0Z" style="fill:none;stroke:#000;stroke-width:6.25px;"/><path d="M50.007,20.177c4.971,-0 9.738,1.975 13.252,5.489c3.515,3.515 5.489,8.282 5.489,13.252c-0,3.592 -0,6.258 -0,6.258l-37.5,0l0,-6.258c0,-4.971 1.975,-9.738 5.489,-13.252c3.515,-3.515 8.282,-5.489 13.252,-5.489c0.006,-0 0.011,-0 0.017,-0Z" style="fill:none;stroke:#000;stroke-width:6.25px;"/><circle cx="49.999" cy="61.843" r="3.125" style="fill:none;stroke:#000;stroke-width:6.25px;"/><path d="M52.081,73.302l-4.167,0l1.042,-8.333l2.083,0l1.042,8.333Z" style="fill:none;stroke:#000;stroke-width:6.25px;"/></svg>