<?xml version="1.0" encoding="UTF-8" standalone="no"?><!DOCTYPE svg PUBLIC "-//W3C//DTD SVG 1.1//EN" "http://www.w3.org/Graphics/SVG/1.1/DTD/svg11.dtd"><svg width="100%" height="100%" viewBox="0 0 105 105" version="1.1" xmlns="http://www.w3.org/2000/svg" xmlns:xlink="http://www.w3.org/1999/xlink" xml:space="preserve" xmlns:serif="http://www.serif.com/" style="fill-rule:evenodd;clip-rule:evenodd;stroke-linecap:round;stroke-linejoin:round;stroke-miterlimit:1.5;"><rect id="pencil" x="2.064" y="2.084" width="100" height="100" style="fill:none;"/><path d="M64.931,27.91l-0.012,-0.011l7.316,-7.316c1.502,-1.502 3.539,-2.346 5.663,-2.346c2.124,-0 4.161,0.844 5.663,2.346l0.005,0.005c1.502,1.502 2.346,3.539 2.346,5.663c-0,2.124 -0.844,4.161 -2.346,5.663l-6.983,6.983l-0.012,-0.011l-41.396,41.148c-0.812,0.812 -1.922,1.252 -3.069,1.219l-9.208,-0l0,-9.208c-0.034,-1.147 0.407,-2.258 1.219,-3.069l40.815,-41.064Z" style="fill:none;stroke:#000;stroke-width:6.25px;"/><path d="M64.931,27.91l11.652,10.985" style="fill:none;stroke:#000;stroke-width:6.25px;"/></svg>